<svg xmlns="http://www.w3.org/2000/svg" width="16" height="16" fill="none"><path fill="#CCC" d="M3.4 5c.7 0 1.3-.4 1.3-1 0-.7-.6-1.2-1.3-1.2-.7 0-1.2.5-1.2 1.2 0 .6.5 1 1.2 1zm-1 .5l-.8 1.2 1.4 1s1 .5.6 1.4C3 10 1 11.9 1 11.9L2.9 13l1.6-3.5c.3-1 .4-1.9-.2-2.4a12 12 0 00-2-1.7z"/><path fill="#CCC" d="M14.7 5.2S14.3 2 7.3 4l.4-.9L6 2.6S5.2 5 4 6l1.2.7 1-1 .7-.4c-.3.6-.8 1.5-1.3 2l.7.7 1-1.1H8v1H5.5v1H8v2h-.1c-.3 0-.7 0-.9-.3-.2-.3 0-1 0-1.3H5.3s-.7 2.8 1.7 2.8c2.3 0 3.6-.7 4.2-1.1l.2.9 1.4-.6-1-2.3-1 .4.2.8-1 .4V8.8h2.4V8H10V6.9h2.4V6H8c.3-.3.6-.7.6-.9L8 5c3.2-1.1 5-1 5 1v4.9s.1 1.6-1.8 1.5l-1-.2-.3 1s4.5 1.3 4.9-2.2c.4-3.5-.1-5.7-.1-5.7z"/></svg>