<svg xmlns="http://www.w3.org/2000/svg" width="16" height="16" fill="none"><path fill="#CCC" d="M8 1a7 7 0 110 14A7 7 0 018 1zm0 .88a6.13 6.13 0 100 12.25A6.13 6.13 0 008 1.87zm-2.54 8.4l-.87-.53c-.53-.44-1.05-.88-1.49-.7-.35 0-.7.44-1.05 1.05 0 .18-.35.26-.52.18a.44.44 0 01-.18-.62c.44-.87.88-1.31 1.49-1.48.87-.18 1.66.35 2.27.87l.61.44c1.14.35 1.5-.35 2.1-1.58L8.7 6.7c.18-.35.53-.53.79-.7.52-.35.87-.62.87-1.75 0-1.23-1.22-2.28-1.22-2.28a.44.44 0 01-.09-.61c.17-.18.44-.26.61-.09 0 0 1.58 1.32 1.58 3.06 0 1.5-.7 2.02-1.31 2.37l-.62.61-.7 1.05c-.43.88-1.05 2.1-2.36 2.1l-.79-.17zm3.5 4.63c-.17 0-.35 0-.44-.17-.34-.53-.6-1.84.8-2.89 1.13-.88 2.97-.79 4.1-.26.18.09.27.44.18.61-.09.18-.35.35-.61.18a3.36 3.36 0 00-3.15.17c-1.05.88-.62 1.66-.53 1.75a.44.44 0 01-.44.61h.1z"/></svg>