<svg xmlns="http://www.w3.org/2000/svg" width="16" height="16" fill="none"><g clip-path="url(#clip0)"><mask id="a" width="10" height="11" x="1" y="5" maskUnits="userSpaceOnUse"><path fill="#fff" fill-rule="evenodd" d="M1 5.7h9.3V16H1V5.7z" clip-rule="evenodd"/></mask><g mask="url(#a)"><path fill="#CCC" fill-rule="evenodd" d="M1.7 5.7A8 8 0 001 9.3a7.4 7.4 0 004.7 6.2L2 5.7h-.4zM8 9.2l-1.2 3.7-1 2.8h.2c1.4.4 2.9.4 4.2-.2l-.3-.7-2-5.6z" clip-rule="evenodd"/></g><path fill="#CCC" fill-rule="evenodd" d="M14.3 5.2l-.5-1-.2-.2c-.8-1.1-1.8-2-3-2.5A6.8 6.8 0 002 4.8H3l1.7-.1c.4 0 .4.4 0 .5h-.6l2.2 7.2L7.8 8l-1-2.8h-.6c-.3 0-.3-.5 0-.5h3.4c.3 0 .4.4 0 .5h-.8l2.4 7.1.5-2.1c.4-1 .5-1.6.5-2.2 0-.8-.3-1.4-.5-1.8-.3-.5-.6-1-.6-1.5 0-.6.4-1.3 1.1-1.3 1 0 1.3 1 1.3 1.7V6c0 .8-.2 1.6-.5 2.3l-1.4 4.3-.8 2.6.2-.1a7.3 7.3 0 004-6.6c0-1-.2-2.2-.7-3.2" clip-rule="evenodd"/></g><defs><clipPath id="clip0"><path fill="#fff" d="M0 0h14v15H0z" transform="translate(1 1)"/></clipPath></defs></svg>